HIERARCHY
ROOT Hips
{
  OFFSET 0 0.240689 0
  CHANNELS 6 Xposition Yposition Zposition Zrotation Xrotation Yrotation
  JOINT Bip01_Spine0
  {
    OFFSET 0 -24.7459 49.7988
    CHANNELS 6 Xposition Yposition Zposition Zrotation Xrotation Yrotation
    JOINT Bip01_Pelvis
    {
      OFFSET 0 0 0
      CHANNELS 6 Xposition Yposition Zposition Zrotation Xrotation Yrotation
      JOINT Bip01_Spine0_Tail
      {
        OFFSET -6.47486 -3.86022 0
        CHANNELS 6 Xposition Yposition Zposition Zrotation Xrotation Yrotation
        JOINT Bip01_Spine0_Tail1
        {
          OFFSET 10.3837 -0.00825882 0
          CHANNELS 6 Xposition Yposition Zposition Zrotation Xrotation Yrotation
          JOINT Bip01_Spine0_Tail2
          {
            OFFSET 10.3837 -0.00826263 0
            CHANNELS 6 Xposition Yposition Zposition Zrotation Xrotation Yrotation
            JOINT Bip01_Spine0_Tail3
            {
              OFFSET 10.3837 -0.00825882 0
              CHANNELS 6 Xposition Yposition Zposition Zrotation Xrotation Yrotation
              JOINT Bip01_Spine0_Tail4
              {
                OFFSET 10.3837 -0.00826263 0
                CHANNELS 6 Xposition Yposition Zposition Zrotation Xrotation Yrotation
                End Site
                {
                  OFFSET 0 0 0
                }
              }
            }
          }
        }
      }
      JOINT Bip01_R_Thigh
      {
        OFFSET 0 -1.52588e-005 -8.75617
        CHANNELS 6 Xposition Yposition Zposition Zrotation Xrotation Yrotation
        JOINT Bip01_R_Calf
        {
          OFFSET 19.7638 0 0
          CHANNELS 6 Xposition Yposition Zposition Zrotation Xrotation Yrotation
          JOINT Bip01_R_Foot
          {
            OFFSET 18.6534 0 0
            CHANNELS 6 Xposition Yposition Zposition Zrotation Xrotation Yrotation
            JOINT Bip01_R_Toe0
            {
              OFFSET 5.09145 13.9567 0
              CHANNELS 6 Xposition Yposition Zposition Zrotation Xrotation Yrotation
              JOINT Bip01_R_Toe01
              {
                OFFSET 4.28803 0 0
                CHANNELS 6 Xposition Yposition Zposition Zrotation Xrotation Yrotation
                JOINT Bip01_R_Toe02
                {
                  OFFSET 3.85801 0 0
                  CHANNELS 6 Xposition Yposition Zposition Zrotation Xrotation Yrotation
                  End Site
                  {
                    OFFSET 0 0 0
                  }
                }
              }
            }
          }
        }
      }
      JOINT Bip01_L_Thigh
      {
        OFFSET 0 1.52588e-005 8.75617
        CHANNELS 6 Xposition Yposition Zposition Zrotation Xrotation Yrotation
        JOINT Bip01_L_Calf
        {
          OFFSET 19.7638 0 0
          CHANNELS 6 Xposition Yposition Zposition Zrotation Xrotation Yrotation
          JOINT Bip01_L_Foot
          {
            OFFSET 18.6534 0 0
            CHANNELS 6 Xposition Yposition Zposition Zrotation Xrotation Yrotation
            JOINT Bip01_L_Toe0
            {
              OFFSET 5.09144 13.9567 0
              CHANNELS 6 Xposition Yposition Zposition Zrotation Xrotation Yrotation
              JOINT Bip01_L_Toe01
              {
                OFFSET 4.28802 0 0
                CHANNELS 6 Xposition Yposition Zposition Zrotation Xrotation Yrotation
                JOINT Bip01_L_Toe02
                {
                  OFFSET 3.85801 0 0
                  CHANNELS 6 Xposition Yposition Zposition Zrotation Xrotation Yrotation
                  End Site
                  {
                    OFFSET 0 0 0
                  }
                }
              }
            }
          }
        }
      }
      JOINT Bip01_Spine
      {
        OFFSET 9.14835 -0.00640869 -1.1e-005
        CHANNELS 6 Xposition Yposition Zposition Zrotation Xrotation Yrotation
        JOINT Bip01_Spine1
        {
          OFFSET 8.04366 -0.00638199 0
          CHANNELS 6 Xposition Yposition Zposition Zrotation Xrotation Yrotation
          JOINT Bip01_Spine2
          {
            OFFSET 8.04367 -0.00639343 0
            CHANNELS 6 Xposition Yposition Zposition Zrotation Xrotation Yrotation
            JOINT Bip01_Spine3
            {
              OFFSET 8.04304 -0.00831222 0
              CHANNELS 6 Xposition Yposition Zposition Zrotation Xrotation Yrotation
              JOINT Bip01_Neck
              {
                OFFSET 10.6685 1.06813 0
                CHANNELS 6 Xposition Yposition Zposition Zrotation Xrotation Yrotation
                JOINT Bip01_R_Clavicle
                {
                  OFFSET -3.21661 -4.89635 -9.04802
                  CHANNELS 6 Xposition Yposition Zposition Zrotation Xrotation Yrotation
                  JOINT Bip01_R_UpperArm
                  {
                    OFFSET 19.0492 0 0
                    CHANNELS 6 Xposition Yposition Zposition Zrotation Xrotation Yrotation
                    JOINT Bip01_R_Forearm
                    {
                      OFFSET 10.3706 0 0
                      CHANNELS 6 Xposition Yposition Zposition Zrotation Xrotation Yrotation
                      JOINT Bip01_R_Hand
                      {
                        OFFSET 22.8632 0 0
                        CHANNELS 6 Xposition Yposition Zposition Zrotation Xrotation Yrotation
                        JOINT Bip01_R_Finger0
                        {
                          OFFSET 6.48259 0.103651 0.504496
                          CHANNELS 6 Xposition Yposition Zposition Zrotation Xrotation Yrotation
                          JOINT Bip01_R_Finger01
                          {
                            OFFSET 3.66847 0 0
                            CHANNELS 6 Xposition Yposition Zposition Zrotation Xrotation Yrotation
                            End Site
                            {
                              OFFSET 0 0 0
                            }
                          }
                        }
                      }
                    }
                  }
                }
                JOINT Bip01_L_Clavicle
                {
                  OFFSET -3.21661 -4.89641 9.04797
                  CHANNELS 6 Xposition Yposition Zposition Zrotation Xrotation Yrotation
                  JOINT Bip01_L_UpperArm
                  {
                    OFFSET 19.0492 0 0
                    CHANNELS 6 Xposition Yposition Zposition Zrotation Xrotation Yrotation
                    JOINT Bip01_L_Forearm
                    {
                      OFFSET 10.3706 0 0
                      CHANNELS 6 Xposition Yposition Zposition Zrotation Xrotation Yrotation
                      JOINT Bip01_L_Hand
                      {
                        OFFSET 22.8631 0 0
                        CHANNELS 6 Xposition Yposition Zposition Zrotation Xrotation Yrotation
                        JOINT Bip01_L_Finger0
                        {
                          OFFSET 6.48257 0.103655 -0.504492
                          CHANNELS 6 Xposition Yposition Zposition Zrotation Xrotation Yrotation
                          JOINT Bip01_L_Finger01
                          {
                            OFFSET 3.66844 0 0
                            CHANNELS 6 Xposition Yposition Zposition Zrotation Xrotation Yrotation
                            End Site
                            {
                              OFFSET 0 0 0
                            }
                          }
                        }
                      }
                    }
                  }
                }
                JOINT Bip01_Neck1
                {
                  OFFSET 7.52459 -0.00656509 0
                  CHANNELS 6 Xposition Yposition Zposition Zrotation Xrotation Yrotation
                  JOINT Bip01_Neck2
                  {
                    OFFSET 8.4783 -0.00588226 0
                    CHANNELS 6 Xposition Yposition Zposition Zrotation Xrotation Yrotation
                    JOINT Bip01_Head
                    {
                      OFFSET 8.41606 0 0
                      CHANNELS 6 Xposition Yposition Zposition Zrotation Xrotation Yrotation
                      JOINT EyesBlue
                      {
                        OFFSET 0 0 0
                        CHANNELS 6 Xposition Yposition Zposition Zrotation Xrotation Yrotation
                        JOINT EyesBlue_2
                        {
                          OFFSET 0 -0.500007 0
                          CHANNELS 6 Xposition Yposition Zposition Zrotation Xrotation Yrotation
                          End Site
                          {
                            OFFSET 0 0 0
                          }
                        }
                      }
                      JOINT Bip01_Head2_Eyeleds
                      {
                        OFFSET 6.52751 7.61746 2.2e-005
                        CHANNELS 6 Xposition Yposition Zposition Zrotation Xrotation Yrotation
                        End Site
                        {
                          OFFSET 0 0 0
                        }
                      }
                      JOINT Bip01_Head_Muzzle
                      {
                        OFFSET 2.88628 13.9448 3.88994
                        CHANNELS 6 Xposition Yposition Zposition Zrotation Xrotation Yrotation
                        End Site
                        {
                          OFFSET 0 0 0
                        }
                      }
                      JOINT Bip01_Head1_Jaw
                      {
                        OFFSET 0.271065 1.32405 0
                        CHANNELS 6 Xposition Yposition Zposition Zrotation Xrotation Yrotation
                        JOINT _Bip01_Head11_TungeControler
                        {
                          OFFSET 4.61616 5.82872 0
                          CHANNELS 6 Xposition Yposition Zposition Zrotation Xrotation Yrotation
                          JOINT _Bip01_Ponytail3_tunge
                          {
                            OFFSET 5.17785 2.98805 0
                            CHANNELS 6 Xposition Yposition Zposition Zrotation Xrotation Yrotation
                            JOINT Bip01_Ponytail31
                            {
                              OFFSET 5.57569 0 0
                              CHANNELS 6 Xposition Yposition Zposition Zrotation Xrotation Yrotation
                              JOINT Bip01_Ponytail32
                              {
                                OFFSET 2.93165 0 0
                                CHANNELS 6 Xposition Yposition Zposition Zrotation Xrotation Yrotation
                                JOINT Bip01_Ponytail3Nub
                                {
                                  OFFSET 3.30155 0 0
                                  CHANNELS 6 Xposition Yposition Zposition Zrotation Xrotation Yrotation
                                  End Site
                                  {
                                    OFFSET 0 0 0
                                  }
                                }
                              }
                            }
                          }
                        }
                        JOINT Bip01_Head_JawNub
                        {
                          OFFSET 15.5776 -0.000389099 0
                          CHANNELS 6 Xposition Yposition Zposition Zrotation Xrotation Yrotation
                          End Site
                          {
                            OFFSET 0 0 0
                          }
                        }
                      }
                      JOINT Bip01_Ponytail2
                      {
                        OFFSET 9.40334 1.03973 -6.51764
                        CHANNELS 6 Xposition Yposition Zposition Zrotation Xrotation Yrotation
                        JOINT Bip01_Ponytail21
                        {
                          OFFSET 2.77018 -0.00640106 1.33514e-005
                          CHANNELS 6 Xposition Yposition Zposition Zrotation Xrotation Yrotation
                          End Site
                          {
                            OFFSET 0 0 0
                          }
                        }
                      }
                      JOINT Bip01_Ponytail1
                      {
                        OFFSET 9.40368 1.03969 6.51768
                        CHANNELS 6 Xposition Yposition Zposition Zrotation Xrotation Yrotation
                        JOINT Bip01_Ponytail11
                        {
                          OFFSET 2.77018 -0.00640487 0
                          CHANNELS 6 Xposition Yposition Zposition Zrotation Xrotation Yrotation
                          End Site
                          {
                            OFFSET 0 0 0
                          }
                        }
                      }
                    }
                  }
                }
              }
            }
          }
        }
      }
    }
  }
}
MOTION
Frames:	4
Frame Time:	0.0333333
0 0 0 -0 -90 -0 0.000104 -28.7009 45.972 89.9998 0.000239229 80.4616 0 0 0 -90 1.77103e-005 -79.0001 -6.36029 -3.85823 -1.23556 174.09 -6.70023 -0.274721 10.3839 -0.008087 0.001105 4.63257 -6.88397 -4.13739 10.3829 -0.008106 -0.00081 -2.54624 6.40998 7.17096 10.3839 -0.007934 0.001577 4.8777 -10.8305 9.98322 10.3862 -0.007553 0.000692002 21.4986 -4.34263 7.8915 1.1e-005 -1.1e-005 -8.75617 -101.563 2.78876 178.294 19.7638 7.10543e-015 1.06581e-014 -91.8284 3.25107e-005 -0.00209371 18.6534 7.10543e-015 -1.77636e-015 -48.5835 1.29768 -3.69855 5.09144 13.9567 -8.76638e-007 70.3996 -2.7932 -4.14805 4.288 -3e-006 -3.29514e-013 20.0012 2.33824e-005 2.95006e-005 0 0 0 -45 -1.87578e-005 1.04322e-005 -1.7e-005 1.1e-005 8.75617 -157.603 5.57156 -161.04 19.7638 7.10543e-015 0 -133.828 0.00119347 -0.00296841 18.6534 0 -1e-006 71.4233 3.57758 -1.60617 5.09143 13.9567 -2.28204e-007 40.9837 0.39247 4.98582 4.288 2.13163e-014 1e-006 -25.9993 0.00152691 0.00244644 3.85799 5.32907e-015 -2e-006 -45 -1.17925e-005 -1.15703e-005 8.98014 -0.006336 1.7457 0.0467417 -0.00776291 -10.9989 8.04366 -0.006393 3e-006 1.59028e-015 1.00179e-005 1.25863e-014 8.04445 -0.005989 -0.001937 7.97643 18.502 -0.0151589 8.04304 -0.008323 -6.71765e-010 -4.29873 3.27688e-005 2.70819e-005 10.6685 1.06812 6.93743e-006 -13.2811 -2.72933e-005 3.15941e-005 -2.46762 -5.31289 -9.04801 -158.384 -67.417 125.5 19.0492 3e-006 3e-006 86.3741 6.50358 -92.7685 10.3706 2e-006 -4.08562e-014 -40.4028 0.0010308 0.00223128 22.8631 -1e-006 -1e-006 23.1593 3.95075 -18.683 6.48256 0.103653 0.504495 46.6916 -12.6303 9.05574 3.66844 -1e-006 4.52971e-014 40.107 3.22021e-006 9.16333e-006 -2.46762 -5.31294 9.04798 -158.383 74.9179 -141.999 19.0492 -3e-006 7.10543e-014 95.415 -57.3146 120.293 10.3706 3e-006 -2.98428e-013 -102.512 -0.000398399 0.00360041 22.8631 -1.77636e-014 1e-006 29.6582 -27.3291 14.8338 6.48256 0.103657 -0.504495 15.8776 15.437 -1.40528 3.66843 1.46372e-012 3e-006 40.1071 -8.27873e-006 8.51348e-006 7.52378 -0.006317 1.00015e-006 -20.4986 0.00171146 0.00246751 8.47829 -0.005882 -2.99992e-006 28.7974 1.66612e-005 -5.88608e-005 8.41604 -3e-006 1e-006 -48.4198 0.451141 -18.4935 -7e-006 5e-006 -3e-006 -23.1098 1.37701e-015 90 9.5104e-007 -0.5 -1.4385e-006 -114.147 90 -155.853 6.5275 7.61746 2.28577e-005 -99.049 -7.01671e-015 -180 2.88629 13.9448 3.88994 -23.1098 1.37701e-015 90 0.271065 1.32405 3.97527e-006 -71.7784 7.62939e-005 -180 4.61616 5.82872 -6.8652e-006 -120.289 -4.00733e-006 1.14421e-006 5.17783 2.98806 4.17413e-006 133.74 -4.07199e-006 -2.41238e-006 5.57567 7e-006 -3e-006 1.83152 -8.23067e-008 -5.63609e-008 2.93163 -2.84217e-013 -5e-006 -17.65 4.87834e-007 5.59363e-007 3.30153 -7e-006 4e-006 -26.1943 1.68402e-005 -1.05431e-005 15.5776 -0.000396 -7.00001e-006 -1.27222e-014 -1.59028e-015 7.95139e-016 9.40333 1.03973 -6.51764 -19.0867 17.2453 20.3009 2.77018 -0.006404 1.50002e-005 2.43503 9.4018e-006 -1.76331e-005 9.40366 1.03969 6.51768 -19.0868 -17.2453 -20.3008 2.77018 -0.006404 -6.99985e-006 2.43503 1.0037e-005 -1.60434e-007 
0 0 -3.33332 -0 -90 -0 0.000104 -28.7009 45.6129 89.9998 0.000251455 80.314 0 0 0 -90 1.43766e-005 -83.9374 -6.43631 -3.85823 -0.682985 173.578 -4.70771 -3.55937 10.3839 -0.008087 0.001105 4.66699 -5.05107 -4.37551 10.3829 -0.008106 -0.00081 -2.05878 4.73171 3.88798 10.3839 -0.007934 0.001577 4.29365 -7.98505 5.92847 10.3862 -0.007553 0.000692001 21.3036 -3.19732 4.44193 1.1e-005 -1.1e-005 -8.75617 -102.723 -1.98889 177.244 19.7638 3.55271e-015 0 -97.5056 0.000135843 -0.00209388 18.6534 -7.10543e-015 -3.55271e-015 -49.3783 1.63232 -3.55892 5.09144 13.9567 -7.64221e-007 70.204 -2.7784 -4.15734 4.288 -3e-006 -3.73035e-013 19.6971 2.36791e-005 2.93738e-005 0 0 0 -45 -2.66766e-005 1.06557e-005 -1.7e-005 1.1e-005 8.75617 -146.262 6.18933 -166.516 19.7638 1.06581e-014 7.10543e-015 -117.907 0.000708093 -0.00298348 18.6534 -7.10543e-015 -1e-006 47.2622 3.87918 -0.314518 5.09143 13.9567 -2.21097e-007 62.5058 2.19781 4.49351 4.288 1.06581e-014 1e-006 -10.8371 0.00211478 0.00196167 3.85799 -1.77636e-015 -2e-006 -41.6632 -1.35372e-005 -1.16568e-005 9.08758 -0.006336 0.965172 0.0472092 -0.0037086 -6.06186 8.04366 -0.006393 3e-006 -5.40694e-014 1.00179e-005 -5.08889e-014 8.04445 -0.005989 -0.001937 7.97613 14.2802 -0.0106503 8.04304 -0.008323 -5.31182e-010 -4.29873 3.07539e-005 2.70094e-005 10.6685 1.06812 6.957e-006 -13.2811 -2.66439e-005 3.18352e-005 -2.46762 -5.31289 -9.04801 -158.428 -68.4481 131.276 19.0492 3e-006 3e-006 82.0868 -27.135 -90.9198 10.3706 2e-006 2.13163e-014 -92.3662 -4.63432e-005 0.00223237 22.8631 -1e-006 -1e-006 33.7216 3.82573 -19.5567 6.48256 0.103653 0.504495 42.5894 -13.234 8.13836 3.66844 -1e-006 6.21725e-014 40.107 -4.31875e-006 1.05798e-005 -2.46762 -5.31294 9.04798 -158.393 74.1485 -140.96 19.0492 -3e-006 5.68434e-014 107.556 -69.1917 127.408 10.3706 3e-006 -2.66454e-013 -77.8973 0.000378387 0.00359981 22.8631 2.84217e-014 1e-006 -3.93202 -18.6246 13.0108 6.48256 0.103657 -0.504495 10.8404 15.4992 -0.0610561 3.66843 1.34293e-012 3e-006 40.1071 -1.64129e-006 4.67427e-006 7.52378 -0.006317 1.00011e-006 -21.0334 0.0016885 0.00248351 8.47829 -0.005882 -2.99994e-006 28.7974 1.61529e-005 -5.89568e-005 8.41604 -3e-006 1e-006 -48.7114 0.537779 -14.2668 -7e-006 5e-006 -3e-006 -23.1098 1.37701e-015 90 9.50806e-007 -0.5 -1.43771e-006 -113.579 90 -156.421 6.5275 7.61746 2.28768e-005 -99.2303 7.01671e-015 -180 2.88629 13.9448 3.88994 -23.1098 1.37701e-015 90 0.271065 1.32405 3.97859e-006 -71.7784 7.62939e-005 -180 4.61616 5.82872 -6.87669e-006 -120.289 -4.85525e-006 1.04669e-006 5.17783 2.98806 4.22133e-006 133.74 -4.54394e-006 -3.06614e-006 5.57567 7e-006 -3e-006 1.83152 -7.31291e-008 -5.14493e-008 2.93163 -2.41584e-013 -5e-006 -17.65 4.4199e-007 5.10009e-007 3.30153 -7e-006 4e-006 -26.1943 1.68471e-005 -1.05914e-005 15.5776 -0.000396 -7.00001e-006 3.18055e-015 0 -0 9.40333 1.03973 -6.51764 -19.0868 17.2453 20.3009 2.77018 -0.006404 1.50002e-005 2.43503 9.37321e-006 -1.76533e-005 9.40366 1.03969 6.51768 -19.0868 -17.2453 -20.3008 2.77018 -0.006404 -6.99986e-006 2.43503 1.00376e-005 -1.66816e-007 
0 0 -6.66674 -0 -90 -0 0.000104 -28.7009 45.2343 89.9999 0.000161188 80.1538 0 0 0 -90 -1.05811e-005 -89.0875 -6.46749 -3.85823 -0.102593 173.304 -2.63666 -7.0891 10.3839 -0.008087 0.001105 4.70612 -3.18933 -4.70258 10.3829 -0.008106 -0.00081 -1.76363 2.98414 0.501367 10.3839 -0.007934 0.001577 3.91119 -5.05583 1.77808 10.3862 -0.007553 0.000692 21.1763 -2.02337 0.859768 1.1e-005 -1.1e-005 -8.75617 -103.765 -6.94487 175.982 19.7638 0 3.55271e-015 -102.864 0.000235331 -0.00209384 18.6534 -3.55271e-015 -1.06581e-014 -49.7365 1.92219 -3.41012 5.09144 13.9567 -6.89925e-007 69.9364 -2.7585 -4.17011 4.288 -3e-006 -4.23661e-013 19.2805 2.40304e-005 2.92559e-005 0 0 0 -45 -5.04092e-005 1.09147e-005 -1.7e-005 1.1e-005 8.75617 -135.367 4.87108 -171.48 19.7638 0 -5.32907e-015 -101.619 0.000280941 -0.00297227 18.6534 -7.10543e-015 -1e-006 22.2146 3.74201 0.979052 5.09143 13.9567 -2.39916e-007 91.7749 4.11414 2.84602 4.288 -1.68754e-014 1e-006 9.68408 0.0026689 0.00109567 3.85799 5.41789e-014 -2e-006 -35.1823 -1.36655e-005 -9.63296e-006 9.13167 -0.006336 0.145386 0.0473515 0.000543754 -0.912203 8.04366 -0.006393 3e-006 -3.18055e-015 1.00179e-005 -6.49566e-015 8.04445 -0.005989 -0.001937 7.97564 9.60505 -0.00683676 8.04304 -0.008323 -3.68248e-010 -4.29873 2.86865e-005 2.69253e-005 10.6685 1.06812 6.97469e-006 -13.2811 -2.6094e-005 3.20532e-005 -2.46762 -5.31289 -9.04801 -158.494 -69.5193 137.596 19.0492 3e-006 3e-006 81.1661 -36.1209 -90.6793 10.3706 2e-006 1.91847e-013 -120.794 -0.000589077 0.00225251 22.8631 -1e-006 -1e-006 46.1487 3.11115 -20.4745 6.48256 0.103653 0.504495 38.2955 -13.7939 7.13466 3.66844 -1e-006 9.05942e-014 40.107 3.06564e-006 1.07705e-005 -2.46762 -5.31294 9.04798 -158.403 73.3802 -139.857 19.0492 -3e-006 4.9738e-014 113.095 -75.589 128.541 10.3706 3e-006 -2.20268e-013 -60.5237 0.00103347 0.00358789 22.8631 1.15818e-012 1e-006 -25.1471 -10.8561 15.5131 6.48256 0.103657 -0.504495 6.53352 15.4619 1.08901 3.66843 6.85674e-013 3e-006 40.1071 1.57563e-005 -2.15905e-006 7.52378 -0.006317 1.00007e-006 -21.5958 0.00166418 0.00250009 8.47829 -0.005882 -2.99996e-006 28.7974 1.57153e-005 -5.90541e-005 8.41604 -3e-006 1e-006 -49.039 0.490063 -9.58912 -7e-006 5e-006 -3e-006 -23.1098 1.37701e-015 90 9.51193e-007 -0.5 -1.43707e-006 -113.11 90 -156.89 6.5275 7.61746 2.29104e-005 -99.4115 7.01671e-015 -180 2.88629 13.9448 3.88994 -23.1098 1.37701e-015 90 0.271065 1.32405 3.98442e-006 -71.7784 7.62939e-005 -180 4.61616 5.82872 -6.90571e-006 -120.289 -4.4388e-006 8.00375e-007 5.17783 2.98806 4.20711e-006 133.74 -3.98228e-006 -2.8692e-006 5.57567 7e-006 -3e-006 1.83152 -5.66915e-008 -3.95217e-008 2.93163 -1.27898e-013 -5e-006 -17.65 3.45228e-007 3.9193e-007 3.30153 -7e-006 4e-006 -26.1943 1.6811e-005 -1.07125e-005 15.5776 -0.000396 -7.00001e-006 -3.18055e-015 -7.95139e-016 1.59028e-015 9.40333 1.03973 -6.51764 -19.0868 17.2453 20.3009 2.77018 -0.006404 1.50001e-005 2.43503 9.34325e-006 -1.76756e-005 9.40366 1.03969 6.51768 -19.0868 -17.2453 -20.3008 2.77018 -0.006404 -6.99989e-006 2.43503 1.00346e-005 -1.78451e-007 
0 0 -9.99998 -0 -90 -0 0.000104 -28.7009 44.8449 90.0001 -0.000135584 79.9858 0 0 0 -90 5.13796e-005 -93.8815 -6.45403 -3.85823 0.438038 173.305 -0.657471 -10.2067 10.3839 -0.008087 0.001105 4.75862 -1.39613 -4.91106 10.3829 -0.008106 -0.00081 -1.68217 1.28455 -2.63606 10.3839 -0.007934 0.001577 3.76072 -2.21262 -2.08082 10.3862 -0.007553 0.000692 21.1297 -0.886428 -2.47911 1.1e-005 -1.1e-005 -8.75617 -104.851 -11.5176 174.638 19.7638 -3.55271e-015 -7.10543e-015 -107.741 0.000327664 -0.00209339 18.6534 1.42109e-014 -5.32907e-015 -49.1463 2.12274 -3.29191 5.09144 13.9567 -6.48653e-007 69.7567 -2.74509 -4.17862 4.288 -3e-006 -4.76064e-013 18.9987 2.4426e-005 2.91077e-005 0 0 0 -45 -0.00017535 1.11343e-005 -1.7e-005 1.1e-005 8.75617 -126.036 2.33954 -175.204 19.7638 -1.42109e-014 0 -90.3297 8.17496e-006 -0.00296795 18.6534 -7.10543e-015 -1e-006 0.752695 3.18541 2.14971 5.09143 13.9567 -2.97569e-007 105.709 4.67719 1.77282 4.288 -1.82077e-014 1e-006 20.3746 0.00282266 0.000581542 3.85799 1.85296e-013 -2e-006 -31.9098 -1.1399e-005 -7.28707e-006 9.11266 -0.006336 -0.618247 0.0472222 0.00450474 3.8818 8.04366 -0.006393 3e-006 -1.59028e-015 1.00179e-005 7.63991e-020 8.04445 -0.005989 -0.001937 7.9751 4.7579 -0.00266984 8.04304 -0.008323 -1.81705e-010 -4.29873 2.66367e-005 2.68291e-005 10.6685 1.06812 6.98903e-006 -13.2811 -2.56892e-005 3.22299e-005 -2.46762 -5.31289 -9.04801 -158.44 -70.3777 141.888 19.0492 3e-006 3e-006 81.2146 -30.6926 -89.4406 10.3706 2e-006 -2.13163e-014 -132.703 -0.000854653 0.0022441 22.8631 -1e-006 -1e-006 51.9311 3.89469 -21.038 6.48256 0.103653 0.504495 34.6609 -14.2085 6.25431 3.66844 -1e-006 8.17124e-014 40.107 7.48244e-006 1.07318e-005 -2.46762 -5.31294 9.04798 -158.4 72.624 -138.859 19.0492 -3e-006 0 101.026 -77.1131 112.856 10.3706 3e-006 -1.27898e-013 -48.8134 0.00148019 0.00354963 22.8631 1.1724e-012 1e-006 -31.4555 -3.33334 19.6898 6.48256 0.103657 -0.504495 1.48065 15.3121 2.43053 3.66843 8.06466e-013 3e-006 40.1071 8.27778e-006 2.94135e-007 7.52378 -0.006317 1.00003e-006 -22.1748 0.00163897 0.00251691 8.47829 -0.005882 -2.99998e-006 28.7974 1.53704e-005 -5.91454e-005 8.41604 -3e-006 1e-006 -49.3794 0.294945 -4.7458 -7e-006 5e-006 -3e-006 -23.1098 1.37701e-015 90 9.52204e-007 -0.5 -1.43663e-006 -112.791 90 -157.209 6.5275 7.61746 2.29542e-005 -99.5927 7.01671e-015 -180 2.88629 13.9448 3.88994 -23.1098 1.37701e-015 90 0.271065 1.32405 3.99204e-006 -71.7784 7.62939e-005 -180 4.61616 5.82872 -6.94951e-006 -120.289 -2.51087e-006 4.28561e-007 5.17783 2.98806 4.11789e-006 133.74 -2.23191e-006 -1.63321e-006 5.57567 7e-006 -3e-006 1.83152 -3.18533e-008 -2.13815e-008 2.93163 -1.13687e-013 -5e-006 -17.65 1.93653e-007 2.12395e-007 3.30153 -7e-006 4e-006 -26.1943 1.67327e-005 -1.08946e-005 15.5776 -0.000396 -7e-006 -3.18055e-015 -3.97569e-016 -7.95139e-016 9.40333 1.03973 -6.51764 -19.0868 17.2453 20.3009 2.77018 -0.006404 1.5e-005 2.43503 9.31613e-006 -1.76978e-005 9.40366 1.03969 6.51768 -19.0868 -17.2453 -20.3008 2.77018 -0.006404 -6.99994e-006 2.43503 1.00271e-005 -1.9488e-007 
